<svg width="22" height="22" viewBox="0 0 22 22" fill="none" xmlns="http://www.w3.org/2000/svg">
<g id="Group 89">
<path id="Vector" d="M7.96736 20.984H19.9674M1.87736 16.563L5.38736 20.073C5.94986 20.6348 6.71236 20.9503 7.50736 20.9503C8.30236 20.9503 9.06486 20.6348 9.62736 20.073L20.0574 9.64299C20.6192 9.08048 20.9347 8.31799 20.9347 7.52298C20.9347 6.72798 20.6192 5.96549 20.0574 5.40299L16.5474 1.89299C15.9849 1.33118 15.2224 1.01562 14.4274 1.01562C13.6324 1.01562 12.8699 1.33118 12.3074 1.89299L1.87736 12.323C1.31556 12.8855 1 13.648 1 14.443C1 15.238 1.31556 16.0005 1.87736 16.563Z" stroke="#6F7979" stroke-width="1.5" stroke-linecap="round" stroke-linejoin="round"/>
<g id="Group" opacity="0.4">
<path id="Vector_2" d="M6.0873 8.11328L13.8373 15.8633M2.4873 16.6443L8.1373 10.9843M5.3073 19.4723L10.9673 13.8123" stroke="#6F7979" stroke-width="1.5" stroke-linecap="round" stroke-linejoin="round"/>
</g>
</g>
</svg>
