<svg width="24" height="24" viewBox="0 0 24 24" fill="none" xmlns="http://www.w3.org/2000/svg">
<g id="Iconsax/TwoTone/eye">
<path id="Vector" opacity="0.4" d="M15.5819 12.0021C15.5819 13.9821 13.9819 15.5821 12.0019 15.5821C10.0219 15.5821 8.42188 13.9821 8.42188 12.0021C8.42188 10.0221 10.0219 8.42212 12.0019 8.42212C13.9819 8.42212 15.5819 10.0221 15.5819 12.0021Z" stroke="white" stroke-width="1.5" stroke-linecap="round" stroke-linejoin="round"/>
<path id="Vector_2" d="M11.9998 20.269C15.5298 20.269 18.8198 18.189 21.1098 14.589C22.0098 13.179 22.0098 10.809 21.1098 9.39899C18.8198 5.79899 15.5298 3.71899 11.9998 3.71899C8.46984 3.71899 5.17984 5.79899 2.88984 9.39899C1.98984 10.809 1.98984 13.179 2.88984 14.589C5.17984 18.189 8.46984 20.269 11.9998 20.269Z" stroke="white" stroke-width="1.5" stroke-linecap="round" stroke-linejoin="round"/>
</g>
</svg>
