<svg width="22" height="19" viewBox="0 0 22 19" fill="none" xmlns="http://www.w3.org/2000/svg">
<g id="Group 39525">
<path id="Vector" opacity="0.4" d="M14.5819 9.28312C14.5819 11.2631 12.9819 12.8631 11.0019 12.8631C9.02187 12.8631 7.42188 11.2631 7.42188 9.28312C7.42188 7.30312 9.02187 5.70312 11.0019 5.70312C12.9819 5.70312 14.5819 7.30312 14.5819 9.28312Z" stroke="#178C8C" stroke-width="1.5" stroke-linecap="round" stroke-linejoin="round"/>
<path id="Vector_2" d="M10.9998 17.55C14.5298 17.55 17.8198 15.47 20.1098 11.87C21.0098 10.46 21.0098 8.09 20.1098 6.68C17.8198 3.08 14.5298 1 10.9998 1C7.46984 1 4.17984 3.08 1.88984 6.68C0.989844 8.09 0.989844 10.46 1.88984 11.87C4.17984 15.47 7.46984 17.55 10.9998 17.55Z" stroke="#178C8C" stroke-width="1.5" stroke-linecap="round" stroke-linejoin="round"/>
</g>
</svg>
