<svg width="24" height="24" viewBox="0 0 24 24" fill="none" xmlns="http://www.w3.org/2000/svg">
<g id="fav">
<path id="Vector" d="M18.9904 17.2579H15.4104M17.2004 15.5079V19.0979M17.2004 21.9979C17.8307 21.9979 18.4549 21.8738 19.0373 21.6326C19.6196 21.3913 20.1488 21.0378 20.5945 20.5921C21.0402 20.1463 21.3938 19.6172 21.635 19.0348C21.8762 18.4525 22.0004 17.8283 22.0004 17.1979C22.0004 16.5676 21.8762 15.9434 21.635 15.3611C21.3938 14.7787 21.0402 14.2496 20.5945 13.8038C20.1488 13.3581 19.6196 13.0046 19.0373 12.7633C18.4549 12.5221 17.8307 12.3979 17.2004 12.3979C15.9274 12.3979 14.7065 12.9037 13.8063 13.8038C12.9061 14.704 12.4004 15.9249 12.4004 17.1979C12.4004 18.471 12.9061 19.6919 13.8063 20.5921C14.7065 21.4922 15.9274 21.9979 17.2004 21.9979Z" stroke="#6F7979" stroke-width="1.5" stroke-miterlimit="10" stroke-linecap="round" stroke-linejoin="round"/>
<path id="Vector_2" opacity="0.4" d="M22 8.69205C22 10.6621 21.49 12.4021 20.69 13.9121C20.242 13.4356 19.7013 13.0559 19.1011 12.7962C18.5009 12.5365 17.854 12.4024 17.2 12.4021C14.55 12.4021 12.4 14.5521 12.4 17.2021C12.4 18.4321 12.87 19.5521 13.63 20.4021C13.26 20.5721 12.92 20.7121 12.62 20.8121C12.28 20.9321 11.72 20.9321 11.38 20.8121C8.48 19.8221 2 15.6921 2 8.69205C2 5.60205 4.49 3.10205 7.56 3.10205C9.37 3.10205 10.99 3.98205 12 5.33205C12.5159 4.64086 13.1857 4.07944 13.9565 3.69235C14.7272 3.30525 15.5775 3.10314 16.44 3.10205C19.51 3.10205 22 5.60205 22 8.69205Z" stroke="#6F7979" stroke-width="1.5" stroke-linecap="round" stroke-linejoin="round"/>
</g>
</svg>
