<svg width="24" height="24" viewBox="0 0 24 24" fill="none" xmlns="http://www.w3.org/2000/svg">
<g id="fav">
<path id="Vector" d="M18.9899 17.2579H15.4099M17.1999 15.5079V19.0979M17.1999 21.9979C17.8302 21.9979 18.4544 21.8738 19.0368 21.6326C19.6191 21.3913 20.1483 21.0378 20.594 20.5921C21.0397 20.1463 21.3933 19.6172 21.6345 19.0348C21.8757 18.4525 21.9999 17.8283 21.9999 17.1979C21.9999 16.5676 21.8757 15.9434 21.6345 15.3611C21.3933 14.7787 21.0397 14.2496 20.594 13.8038C20.1483 13.3581 19.6191 13.0046 19.0368 12.7633C18.4544 12.5221 17.8302 12.3979 17.1999 12.3979C15.9269 12.3979 14.706 12.9037 13.8058 13.8038C12.9056 14.704 12.3999 15.9249 12.3999 17.1979C12.3999 18.471 12.9056 19.6919 13.8058 20.5921C14.706 21.4922 15.9269 21.9979 17.1999 21.9979Z" stroke="#178C8C" stroke-width="1.5" stroke-miterlimit="10" stroke-linecap="round" stroke-linejoin="round"/>
<path id="Vector_2" opacity="0.4" d="M22 8.69205C22 10.6621 21.49 12.4021 20.69 13.9121C20.242 13.4356 19.7013 13.0559 19.1011 12.7962C18.5009 12.5365 17.854 12.4024 17.2 12.4021C14.55 12.4021 12.4 14.5521 12.4 17.2021C12.4 18.4321 12.87 19.5521 13.63 20.4021C13.26 20.5721 12.92 20.7121 12.62 20.8121C12.28 20.9321 11.72 20.9321 11.38 20.8121C8.48 19.8221 2 15.6921 2 8.69205C2 5.60205 4.49 3.10205 7.56 3.10205C9.37 3.10205 10.99 3.98205 12 5.33205C12.5159 4.64086 13.1857 4.07944 13.9565 3.69235C14.7272 3.30525 15.5775 3.10314 16.44 3.10205C19.51 3.10205 22 5.60205 22 8.69205Z" stroke="#178C8C" stroke-width="1.5" stroke-linecap="round" stroke-linejoin="round"/>
</g>
</svg>
