<svg width="52" height="50" viewBox="0 0 52 50" fill="none" xmlns="http://www.w3.org/2000/svg">
<g id="Group 39520">
<path id="Vector" d="M38.6423 41.1518H28.6044L17.4371 48.5799C17.0603 48.8311 16.6223 48.9753 16.1698 48.9971C15.7174 49.0189 15.2676 48.9175 14.8683 48.7037C14.469 48.4899 14.1353 48.1717 13.9026 47.783C13.67 47.3944 13.5472 46.9499 13.5474 46.497V41.1518C6.01897 41.1518 1 36.1328 1 28.6044V13.5474C1 6.01897 6.01897 1 13.5474 1H38.6423C46.1708 1 51.1897 6.01897 51.1897 13.5474V28.6044C51.1897 36.1328 46.1708 41.1518 38.6423 41.1518Z" stroke="#178C8C" stroke-width="1.5" stroke-miterlimit="10" stroke-linecap="round" stroke-linejoin="round"/>
<path id="Vector_2" opacity="0.4" d="M26.0945 23.4079V22.8809C26.0945 21.1745 27.1484 20.2711 28.2024 19.5433C29.2313 18.8407 30.2602 17.9372 30.2602 16.281C30.2602 13.9723 28.4032 12.1152 26.0945 12.1152C23.7857 12.1152 21.9287 13.9723 21.9287 16.281M26.0819 29.4056H26.107" stroke="#178C8C" stroke-width="1.5" stroke-linecap="round" stroke-linejoin="round"/>
</g>
</svg>
