<svg width="22" height="22" viewBox="0 0 22 22" fill="none" xmlns="http://www.w3.org/2000/svg">
<g id="Group 81">
<path id="Vector" d="M8 21H14C19 21 21 19 21 14V8C21 3 19 1 14 1H8C3 1 1 3 1 8V14C1 19 3 21 8 21Z" stroke="#178C8C" stroke-width="1.5" stroke-linecap="round" stroke-linejoin="round"/>
<g id="Group" opacity="0.4">
<path id="Vector_2" d="M9.4502 15.2816L8.6002 14.4216M15.2802 12.6096C14.7445 13.1475 14.0714 13.5279 13.3343 13.7095C12.5973 13.8912 11.8245 13.867 11.1002 13.6396L8.5102 16.2196C8.3302 16.4096 7.9602 16.5296 7.6902 16.4896L6.4902 16.3296C6.0902 16.2796 5.7302 15.8996 5.6702 15.5096L5.5102 14.3096C5.4702 14.0496 5.6002 13.6796 5.7802 13.4896L8.3602 10.9096C7.9202 9.47965 8.2602 7.85965 9.3902 6.72965C11.0102 5.10965 13.6502 5.10965 15.2802 6.72965C16.9002 8.33965 16.9002 10.9796 15.2802 12.6096Z" stroke="#178C8C" stroke-width="1.5" stroke-miterlimit="10" stroke-linecap="round" stroke-linejoin="round"/>
<path id="Vector_3" d="M12.3955 9.70264H12.4045" stroke="#178C8C" stroke-width="2" stroke-linecap="round" stroke-linejoin="round"/>
</g>
</g>
</svg>
