<svg width="21" height="22" viewBox="0 0 21 22" fill="none" xmlns="http://www.w3.org/2000/svg">
<g id="Group 61">
<path id="Vector" d="M7.81486 9.87072C7.71486 9.86072 7.59486 9.86072 7.48486 9.87072C6.33707 9.83175 5.2495 9.34756 4.45249 8.52068C3.65548 7.6938 3.2116 6.58918 3.21486 5.44072C3.21486 2.99072 5.19486 1.00072 7.65486 1.00072C8.8311 0.979505 9.96758 1.42641 10.8143 2.24314C11.661 3.05986 12.1486 4.17949 12.1699 5.35572C12.1911 6.53196 11.7442 7.66845 10.9274 8.51517C10.1107 9.3619 8.9911 9.8495 7.81486 9.87072Z" stroke="#178C8C" stroke-width="1.5" stroke-linecap="round" stroke-linejoin="round"/>
<path id="Vector_2" opacity="0.4" d="M15.0665 3.00049C17.0065 3.00049 18.5665 4.57049 18.5665 6.50049C18.5665 8.39049 17.0665 9.93049 15.1965 10.0005C15.1101 9.99048 15.0229 9.99048 14.9365 10.0005" stroke="#178C8C" stroke-width="1.5" stroke-linecap="round" stroke-linejoin="round"/>
<path id="Vector_3" d="M2.815 13.5605C0.395 15.1805 0.395 17.8205 2.815 19.4305C5.565 21.2705 10.075 21.2705 12.825 19.4305C15.245 17.8105 15.245 15.1705 12.825 13.5605C10.085 11.7305 5.575 11.7305 2.815 13.5605Z" stroke="#178C8C" stroke-width="1.5" stroke-linecap="round" stroke-linejoin="round"/>
<path id="Vector_4" opacity="0.4" d="M16.9956 19.0005C17.7156 18.8505 18.3956 18.5605 18.9556 18.1305C20.5156 16.9605 20.5156 15.0305 18.9556 13.8605C18.4056 13.4405 17.7356 13.1605 17.0256 13.0005" stroke="#178C8C" stroke-width="1.5" stroke-linecap="round" stroke-linejoin="round"/>
</g>
</svg>
