<svg width="24" height="24" viewBox="0 0 24 24" fill="none" xmlns="http://www.w3.org/2000/svg">
<g id="Iconsax/TwoTone/menu">
<path id="Vector" d="M17.5401 8.31001C18.1925 8.31001 18.8182 8.05084 19.2796 7.5895C19.7409 7.12816 20.0001 6.50245 20.0001 5.85001C20.0001 5.19758 19.7409 4.57187 19.2796 4.11053C18.8182 3.64919 18.1925 3.39001 17.5401 3.39001C16.8876 3.39001 16.2619 3.64919 15.8006 4.11053C15.3393 4.57187 15.0801 5.19758 15.0801 5.85001C15.0801 6.50245 15.3393 7.12816 15.8006 7.5895C16.2619 8.05084 16.8876 8.31001 17.5401 8.31001Z" stroke="white" stroke-width="1.5" stroke-miterlimit="10" stroke-linecap="round" stroke-linejoin="round"/>
<path id="Vector_2" opacity="0.4" d="M6.46 8.31001C7.11243 8.31001 7.73814 8.05084 8.19948 7.5895C8.66082 7.12816 8.92 6.50245 8.92 5.85001C8.92 5.19758 8.66082 4.57187 8.19948 4.11053C7.73814 3.64919 7.11243 3.39001 6.46 3.39001C5.80757 3.39001 5.18186 3.64919 4.72052 4.11053C4.25918 4.57187 4 5.19758 4 5.85001C4 6.50245 4.25918 7.12816 4.72052 7.5895C5.18186 8.05084 5.80757 8.31001 6.46 8.31001ZM17.54 20.611C18.1924 20.611 18.8181 20.3518 19.2795 19.8905C19.7408 19.4292 20 18.8034 20 18.151C20 17.4986 19.7408 16.8729 19.2795 16.4115C18.8181 15.9502 18.1924 15.691 17.54 15.691C16.8876 15.691 16.2619 15.9502 15.8005 16.4115C15.3392 16.8729 15.08 17.4986 15.08 18.151C15.08 18.8034 15.3392 19.4292 15.8005 19.8905C16.2619 20.3518 16.8876 20.611 17.54 20.611Z" stroke="white" stroke-width="1.5" stroke-miterlimit="10" stroke-linecap="round" stroke-linejoin="round"/>
<path id="Vector_3" d="M6.46 20.611C7.11243 20.611 7.73814 20.3519 8.19948 19.8905C8.66082 19.4292 8.92 18.8035 8.92 18.151C8.92 17.4986 8.66082 16.8729 8.19948 16.4116C7.73814 15.9502 7.11243 15.691 6.46 15.691C5.80757 15.691 5.18186 15.9502 4.72052 16.4116C4.25918 16.8729 4 17.4986 4 18.151C4 18.8035 4.25918 19.4292 4.72052 19.8905C5.18186 20.3519 5.80757 20.611 6.46 20.611Z" stroke="white" stroke-width="1.5" stroke-miterlimit="10" stroke-linecap="round" stroke-linejoin="round"/>
</g>
</svg>
