<svg width="22" height="22" viewBox="0 0 22 22" fill="none" xmlns="http://www.w3.org/2000/svg">
<g id="Group 74">
<path id="Vector" d="M1.52 6.11H20.48M7.52 1.11V5.97M14.48 1.11V5.52M21 14V8C21 3 19 1 14 1H8C3 1 1 3 1 8V14C1 19 3 21 8 21H14C19 21 21 19 21 14Z" stroke="white" stroke-width="1.5" stroke-linecap="round" stroke-linejoin="round"/>
<path id="Vector_2" opacity="0.4" d="M8.75 13.4482V12.2482C8.75 10.7082 9.84 10.0782 11.17 10.8482L12.21 11.4482L13.25 12.0482C14.58 12.8182 14.58 14.0782 13.25 14.8482L12.21 15.4482L11.17 16.0482C9.84 16.8182 8.75 16.1882 8.75 14.6482V13.4482Z" stroke="white" stroke-width="1.5" stroke-miterlimit="10" stroke-linecap="round" stroke-linejoin="round"/>
</g>
</svg>
