<svg width="20" height="22" viewBox="0 0 20 22" fill="none" xmlns="http://www.w3.org/2000/svg">
<g id="Group 78">
<path id="Vector" d="M12.3302 8.54465L10.1102 9.65465M10.1102 9.65465L7.89021 8.54465M10.1102 9.65465V12.4346M12.3302 1.87465L10.1102 0.764648L7.89021 1.87465M3.44021 17.4346L1.22021 16.3246V13.5446M16.7802 17.4346L19.0002 16.3246V13.5446" stroke="white" stroke-width="1.5" stroke-linecap="round" stroke-linejoin="round"/>
<g id="Group" opacity="0.4">
<path id="Vector_2" d="M19.0002 5.67445L16.7802 6.78445M19.0002 5.67445L16.7802 4.56445M19.0002 5.67445V8.45445M1.22021 5.67445L3.44021 4.56445M1.22021 5.67445L3.44021 6.78445M1.22021 5.67445V8.45445M7.89021 20.1245L10.1102 21.2345L12.3302 20.1245M10.1102 21.2355V18.4555" stroke="white" stroke-width="1.5" stroke-linecap="round" stroke-linejoin="round"/>
</g>
</g>
</svg>
