<svg width="104" height="104" viewBox="0 0 104 104" fill="none" xmlns="http://www.w3.org/2000/svg">
<g id="Iconsax/TwoTone/videocircle">
<rect width="104" height="104" rx="52" fill="white"/>
<path id="Vector" opacity="0.4" d="M39.4424 52V45.5866C39.4424 37.31 45.2924 33.9733 52.4424 38.09L57.989 41.2966L63.5357 44.5033C70.6857 48.62 70.6857 55.38 63.5357 59.4966L57.989 62.7033L52.4424 65.91C45.2924 70.0266 39.4424 66.6466 39.4424 58.4133V52Z" stroke="#FF0000" stroke-width="1.5" stroke-miterlimit="10" stroke-linecap="round" stroke-linejoin="round"/>
<path id="Vector_2" d="M52.0003 95.3332C75.9333 95.3332 95.3337 75.9328 95.3337 51.9998C95.3337 28.0668 75.9333 8.6665 52.0003 8.6665C28.0673 8.6665 8.66699 28.0668 8.66699 51.9998C8.66699 75.9328 28.0673 95.3332 52.0003 95.3332Z" stroke="#FF0000" stroke-width="1.5" stroke-linecap="round" stroke-linejoin="round"/>
</g>
</svg>
