<svg width="24" height="24" viewBox="0 0 24 24" fill="none" xmlns="http://www.w3.org/2000/svg">
<g id="Iconsax/TwoTone/buildings2">
<path id="Vector" opacity="0.4" d="M6.7 18H4.15C2.72 18 2 17.28 2 15.85V4.15C2 2.72 2.72 2 4.15 2H8.45C9.88 2 10.6 2.72 10.6 4.15V6" stroke="#178C8C" stroke-width="1.5" stroke-miterlimit="10" stroke-linecap="round" stroke-linejoin="round"/>
<path id="Vector_2" d="M17.3702 8.42V19.58C17.3702 21.19 16.5702 22 14.9602 22H9.1202C7.5102 22 6.7002 21.19 6.7002 19.58V8.42C6.7002 6.81 7.5102 6 9.1202 6H14.9602C16.5702 6 17.3702 6.81 17.3702 8.42Z" stroke="#178C8C" stroke-width="1.5" stroke-miterlimit="10" stroke-linecap="round" stroke-linejoin="round"/>
<path id="Vector_3" opacity="0.4" d="M13.4 6V4.15C13.4 2.72 14.12 2 15.55 2H19.85C21.28 2 22 2.72 22 4.15V15.85C22 17.28 21.28 18 19.85 18H17.37M10 11H14M10 14H14" stroke="#178C8C" stroke-width="1.5" stroke-miterlimit="10" stroke-linecap="round" stroke-linejoin="round"/>
<path id="Vector_4" d="M12 22V19" stroke="#178C8C" stroke-width="1.5" stroke-miterlimit="10" stroke-linecap="round" stroke-linejoin="round"/>
</g>
</svg>
