<svg width="35" height="34" viewBox="0 0 35 34" fill="none" xmlns="http://www.w3.org/2000/svg">
<g id="Group 23">
<path id="Vector" opacity="0.3" d="M19.6212 16.293C20.0117 15.9024 20.0117 15.2693 19.6212 14.8787C19.2306 14.4882 18.5975 14.4882 18.207 14.8787L11.1359 21.9498C10.7454 22.3403 10.7454 22.9735 11.1359 23.364C11.5264 23.7545 12.1596 23.7545 12.5501 23.364L19.6212 16.293Z" fill="white"/>
<path id="Vector_2" opacity="0.3" d="M12.554 14.8744C12.7416 15.0619 12.8469 15.3162 12.8469 15.5815C12.8469 15.8467 12.7416 16.101 12.554 16.2886C12.3665 16.4761 12.1122 16.5815 11.8469 16.5815C11.5817 16.5815 11.3274 16.4761 11.1398 16.2886L10.4327 15.5815C9.68258 14.8313 9.26115 13.8139 9.26115 12.753C9.26115 11.6922 9.68258 10.6748 10.4327 9.92461L14.6754 5.68197C15.4255 4.93182 16.4429 4.5104 17.5038 4.5104C18.5647 4.5104 19.5821 4.93182 20.3322 5.68197L28.8175 14.1672C29.5676 14.9174 29.9891 15.9348 29.9891 16.9957C29.9891 18.0565 29.5676 19.074 28.8175 19.8241L24.5706 24.071C23.8205 24.8211 22.8031 25.2426 21.7422 25.2426C20.6813 25.2426 19.6639 24.8211 18.9138 24.071L18.2067 23.3639C18.0191 23.1763 17.9138 22.922 17.9138 22.6568C17.9138 22.3916 18.0191 22.1372 18.2067 21.9497C18.3942 21.7621 18.6485 21.6568 18.9138 21.6568C19.179 21.6568 19.4333 21.7621 19.6209 21.9497L20.328 22.6568C20.703 23.0318 21.2118 23.2426 21.7422 23.2426C22.2726 23.2426 22.7813 23.0318 23.1564 22.6568L27.399 18.4141C27.7741 18.0391 27.9848 17.5304 27.9848 16.9999C27.9848 16.4695 27.7741 15.9608 27.399 15.5857L18.9138 7.10042C18.5387 6.72535 18.03 6.51464 17.4995 6.51464C16.9691 6.51464 16.4604 6.72535 16.0853 7.10042L11.8427 11.3431C11.4676 11.7181 11.2569 12.2268 11.2569 12.7573C11.2569 13.2877 11.4676 13.7964 11.8427 14.1715L12.554 14.8744Z" fill="white"/>
<path id="Vector_3" d="M16.0855 15.1714C15.8233 15.1669 15.5734 15.0595 15.3896 14.8725C15.2058 14.6855 15.1029 14.4338 15.1029 14.1716C15.1029 13.9094 15.2058 13.6576 15.3896 13.4706C15.5734 13.2836 15.8233 13.1763 16.0855 13.1717L20.3281 13.1717C20.5933 13.1718 20.8476 13.2771 21.0351 13.4646C21.2226 13.6521 21.3279 13.9064 21.328 14.1716L21.328 18.4142C21.3234 18.6764 21.2161 18.9263 21.0291 19.11C20.842 19.2938 20.5903 19.3968 20.3281 19.3968C20.0659 19.3968 19.8142 19.2938 19.6272 19.11C19.4402 18.9263 19.3328 18.6764 19.3283 18.4142L19.3283 15.1714L16.0855 15.1714Z" fill="white"/>
</g>
</svg>
