<svg width="22" height="22" viewBox="0 0 22 22" fill="none" xmlns="http://www.w3.org/2000/svg">
<g id="Group 75">
<path id="Vector" d="M7.99805 21H13.998C18.998 21 20.998 19 20.998 14V8C20.998 3 18.998 1 13.998 1H7.99805C2.99805 1 0.998047 3 0.998047 8V14C0.998047 19 2.99805 21 7.99805 21Z" stroke="white" stroke-width="1.5" stroke-linecap="round" stroke-linejoin="round"/>
<path id="Vector_2" opacity="0.4" d="M1.66992 17.949L6.59992 14.639C7.38992 14.109 8.52992 14.169 9.23992 14.779L9.56992 15.069C10.3499 15.739 11.6099 15.739 12.3899 15.069L16.5499 11.499C17.3299 10.829 18.5899 10.829 19.3699 11.499L20.9999 12.899M7.99792 9C8.52835 9 9.03706 8.78929 9.41214 8.41421C9.78721 8.03914 9.99792 7.53043 9.99792 7C9.99792 6.46957 9.78721 5.96086 9.41214 5.58579C9.03706 5.21071 8.52835 5 7.99792 5C7.46749 5 6.95878 5.21071 6.58371 5.58579C6.20864 5.96086 5.99792 6.46957 5.99792 7C5.99792 7.53043 6.20864 8.03914 6.58371 8.41421C6.95878 8.78929 7.46749 9 7.99792 9Z" stroke="white" stroke-width="1.5" stroke-linecap="round" stroke-linejoin="round"/>
</g>
</svg>
