<svg width="20" height="22" viewBox="0 0 20 22" fill="none" xmlns="http://www.w3.org/2000/svg">
<g id="Group 39531">
<path id="Vector" opacity="0.4" d="M9.75 17.9912C10.8109 17.9912 11.8283 17.5698 12.5784 16.8196C13.3286 16.0695 13.75 15.0521 13.75 13.9912C13.75 12.9303 13.3286 11.9129 12.5784 11.1628C11.8283 10.4126 10.8109 9.99121 9.75 9.99121C8.68913 9.99121 7.67172 10.4126 6.92157 11.1628C6.17143 11.9129 5.75 12.9303 5.75 13.9912C5.75 15.0521 6.17143 16.0695 6.92157 16.8196C7.67172 17.5698 8.68913 17.9912 9.75 17.9912Z" stroke="#178C8C" stroke-width="1.5" stroke-miterlimit="10" stroke-linecap="round" stroke-linejoin="round"/>
<path id="Vector_2" opacity="0.4" d="M10 12.7412V13.6712C10 14.0212 9.82 14.3512 9.51 14.5312L8.75 14.9912" stroke="#178C8C" stroke-width="1.5" stroke-miterlimit="10" stroke-linecap="round" stroke-linejoin="round"/>
<path id="Vector_3" d="M6.7508 20.9912H12.7508C16.7708 20.9912 17.4908 19.3812 17.7008 17.4212L18.4508 11.4212C18.7208 8.98121 18.0208 6.99121 13.7508 6.99121H5.7508C1.4808 6.99121 0.780803 8.98121 1.0508 11.4212L1.8008 17.4212C2.0108 19.3812 2.7308 20.9912 6.7508 20.9912Z" stroke="#178C8C" stroke-width="1.5" stroke-miterlimit="10" stroke-linecap="round" stroke-linejoin="round"/>
<path id="Vector_4" opacity="0.4" d="M5.25 6.66156V5.69156C5.25 3.44156 7.06 1.23156 9.31 1.02156C9.93517 0.960141 10.5663 1.03029 11.1627 1.2275C11.7591 1.42471 12.3077 1.74461 12.773 2.16661C13.2383 2.58861 13.6101 3.10336 13.8645 3.67773C14.1189 4.25211 14.2502 4.87338 14.25 5.50156V6.88156" stroke="#178C8C" stroke-width="1.5" stroke-miterlimit="10" stroke-linecap="round" stroke-linejoin="round"/>
</g>
</svg>
