<svg width="22" height="22" viewBox="0 0 22 22" fill="none" xmlns="http://www.w3.org/2000/svg">
<g id="Group 76">
<path id="Vector" opacity="0.4" d="M6 12H11M6 16H15M18 7C18.7956 7 19.5587 6.68393 20.1213 6.12132C20.6839 5.55871 21 4.79565 21 4C21 3.20435 20.6839 2.44129 20.1213 1.87868C19.5587 1.31607 18.7956 1 18 1C17.2044 1 16.4413 1.31607 15.8787 1.87868C15.3161 2.44129 15 3.20435 15 4C15 4.79565 15.3161 5.55871 15.8787 6.12132C16.4413 6.68393 17.2044 7 18 7Z" stroke="white" stroke-width="1.5" stroke-linecap="round" stroke-linejoin="round"/>
<path id="Vector_2" d="M13 1H8C3 1 1 3 1 8V14C1 19 3 21 8 21H14C19 21 21 19 21 14V9" stroke="white" stroke-width="1.5" stroke-linecap="round" stroke-linejoin="round"/>
</g>
</svg>
