<svg width="22" height="22" viewBox="0 0 22 22" fill="none" xmlns="http://www.w3.org/2000/svg">
<g id="Group 88">
<path id="Vector" d="M3.00074 6.58606H2.00074M20.0007 6.58606H19.0007M14.5107 1.41406H7.49074C5.00074 1.41406 4.45074 2.65406 4.13074 4.17406L3.00074 9.58406H19.0007L17.8707 4.17406C17.5507 2.65406 17.0007 1.41406 14.5107 1.41406ZM20.9897 18.4061C21.0997 19.5761 20.1597 20.5861 18.9597 20.5861H17.0797C15.9997 20.5861 15.8497 20.1261 15.6597 19.5561L15.4597 18.9561C15.1797 18.1361 14.9997 17.5861 13.5597 17.5861H8.43974C6.99974 17.5861 6.78974 18.2061 6.53974 18.9561L6.33974 19.5561C6.14974 20.1261 5.99974 20.5861 4.91974 20.5861H3.03974C1.83974 20.5861 0.899736 19.5761 1.00974 18.4061L1.56974 12.3161C1.70974 10.8161 1.99974 9.58606 4.61974 9.58606H17.3797C19.9997 9.58606 20.2897 10.8161 20.4297 12.3161L20.9897 18.4061Z" stroke="#178C8C" stroke-width="1.5" stroke-linecap="round" stroke-linejoin="round"/>
<g id="Group" opacity="0.4">
<path id="Vector_2" d="M11.001 1.58594V3.58594M9.50098 3.58594H12.501" stroke="#178C8C" stroke-width="1.5" stroke-linecap="round" stroke-linejoin="round"/>
</g>
<path id="Vector_3" opacity="0.4" d="M5.00098 13.5859H8.00098M14.001 13.5859H17.001" stroke="#178C8C" stroke-width="1.5" stroke-linecap="round" stroke-linejoin="round"/>
</g>
</svg>
