<svg width="24" height="24" viewBox="0 0 24 24" fill="none" xmlns="http://www.w3.org/2000/svg">
<g id="Iconsax/TwoTone/walletmoney">
<g id="Group" opacity="0.4">
<path id="Vector" d="M10.7521 16.8604V18.8904C10.7521 20.6104 9.15205 22.0004 7.18205 22.0004C5.21205 22.0004 3.60205 20.6104 3.60205 18.8904V16.8604C3.60205 18.5804 5.20205 19.8004 7.18205 19.8004C9.15205 19.8004 10.7521 18.5704 10.7521 16.8604Z" stroke="white" stroke-width="1.5" stroke-linecap="round" stroke-linejoin="round"/>
<path id="Vector_2" d="M10.7498 14.1117C10.7498 14.6117 10.6098 15.0717 10.3698 15.4717C9.77984 16.4417 8.56984 17.0517 7.16984 17.0517C5.76984 17.0517 4.55984 16.4317 3.96984 15.4717C3.72984 15.0717 3.58984 14.6117 3.58984 14.1117C3.58984 13.2517 3.98984 12.4817 4.62984 11.9217C5.27984 11.3517 6.16984 11.0117 7.15984 11.0117C8.14984 11.0117 9.03984 11.3617 9.68984 11.9217C10.3498 12.4717 10.7498 13.2517 10.7498 14.1117Z" stroke="white" stroke-width="1.5" stroke-linecap="round" stroke-linejoin="round"/>
<path id="Vector_3" d="M10.7521 14.11V16.86C10.7521 18.58 9.15205 19.8 7.18205 19.8C5.21205 19.8 3.60205 18.57 3.60205 16.86V14.11C3.60205 12.39 5.20205 11 7.18205 11C8.17205 11 9.06205 11.35 9.71205 11.91C10.3521 12.47 10.7521 13.25 10.7521 14.11Z" stroke="white" stroke-width="1.5" stroke-linecap="round" stroke-linejoin="round"/>
</g>
<path id="Vector_4" d="M22.0002 10.9702V13.0302C22.0002 13.5802 21.5602 14.0302 21.0002 14.0502H19.0402C17.9602 14.0502 16.9702 13.2602 16.8802 12.1802C16.8202 11.5502 17.0602 10.9602 17.4802 10.5502C17.8502 10.1702 18.3602 9.9502 18.9202 9.9502H21.0002C21.5602 9.9702 22.0002 10.4202 22.0002 10.9702Z" stroke="white" stroke-width="1.5" stroke-linecap="round" stroke-linejoin="round"/>
<path id="Vector_5" d="M2 10.5V8.5C2 5.78 3.64 3.88 6.19 3.56C6.45 3.52 6.72 3.5 7 3.5H16C16.26 3.5 16.51 3.51 16.75 3.55C19.33 3.85 21 5.76 21 8.5V9.95H18.92C18.36 9.95 17.85 10.17 17.48 10.55C17.06 10.96 16.82 11.55 16.88 12.18C16.97 13.26 17.96 14.05 19.04 14.05H21V15.5C21 18.5 19 20.5 16 20.5H13.5" stroke="white" stroke-width="1.5" stroke-linecap="round" stroke-linejoin="round"/>
</g>
</svg>
