<svg width="19" height="22" viewBox="0 0 19 22" fill="none" xmlns="http://www.w3.org/2000/svg">
<g id="Group 87">
<path id="Vector" d="M7.9799 1.23396L2.9899 3.10396C1.8399 3.53396 0.899902 4.89396 0.899902 6.12396V13.554C0.899902 14.734 1.6799 16.284 2.6299 16.994L6.9299 20.204C8.3399 21.264 10.6599 21.264 12.0699 20.204L16.3699 16.994C17.3199 16.284 18.0999 14.734 18.0999 13.554V6.12396C18.0999 4.89396 17.1599 3.53396 16.0099 3.10396L11.0199 1.23396C10.1699 0.923965 8.8099 0.923965 7.9799 1.23396Z" stroke="#178C8C" stroke-width="1.5" stroke-linecap="round" stroke-linejoin="round"/>
<path id="Vector_2" opacity="0.4" d="M9.48978 9.92283H9.35978C8.41978 9.89283 7.66979 9.11283 7.66979 8.16283C7.66979 7.19283 8.45978 6.40283 9.42978 6.40283C10.3998 6.40283 11.1898 7.19283 11.1898 8.16283C11.1798 9.12283 10.4298 9.89283 9.48978 9.92283ZM7.49979 12.7248C6.53979 13.3648 6.53979 14.4148 7.49979 15.0548C8.58979 15.7848 10.3798 15.7848 11.4698 15.0548C12.4298 14.4148 12.4298 13.3648 11.4698 12.7248C10.3898 11.9948 8.59979 11.9948 7.49979 12.7248Z" stroke="#178C8C" stroke-width="1.5" stroke-linecap="round" stroke-linejoin="round"/>
</g>
</svg>
