<svg width="24" height="24" viewBox="0 0 24 24" fill="none" xmlns="http://www.w3.org/2000/svg">
<g id="Iconsax/TwoTone/people">
<path id="Vector" opacity="0.4" d="M16.968 14.44C18.338 14.67 19.848 14.43 20.908 13.72C22.318 12.78 22.318 11.24 20.908 10.3C19.838 9.59 18.308 9.35 16.938 9.59M6.99701 14.44C5.62701 14.67 4.11701 14.43 3.05701 13.72C1.64701 12.78 1.64701 11.24 3.05701 10.3C4.12701 9.59 5.65701 9.35 7.02701 9.59M17.998 7.16C17.9351 7.14999 17.871 7.14999 17.808 7.16C17.1406 7.13587 16.5088 6.85321 16.046 6.37176C15.5832 5.89032 15.3258 5.2478 15.328 4.58C15.328 3.15 16.478 2 17.908 2C18.5923 2 19.2485 2.27182 19.7323 2.75566C20.2162 3.23951 20.488 3.89574 20.488 4.58C20.4862 5.24827 20.226 5.88996 19.7619 6.37081C19.2978 6.85167 18.6658 7.13445 17.998 7.16ZM5.96701 7.16C6.02701 7.15 6.09701 7.15 6.15701 7.16C6.82438 7.13587 7.45622 6.85321 7.91901 6.37176C8.38179 5.89032 8.63927 5.2478 8.63701 4.58C8.63701 3.15 7.48701 2 6.05701 2C5.37275 2 4.71652 2.27182 4.23268 2.75566C3.74883 3.23951 3.47701 3.89574 3.47701 4.58C3.48701 5.98 4.58701 7.11 5.96701 7.16Z" stroke="#178C8C" stroke-width="1.5" stroke-linecap="round" stroke-linejoin="round"/>
<path id="Vector_2" d="M11.9982 14.6292C11.9353 14.6192 11.8712 14.6192 11.8082 14.6292C11.1409 14.6051 10.509 14.3224 10.0462 13.841C9.58346 13.3596 9.32599 12.717 9.32824 12.0492C9.32824 10.6192 10.4782 9.46924 11.9082 9.46924C12.5925 9.46924 13.2487 9.74106 13.7326 10.2249C14.2164 10.7087 14.4882 11.365 14.4882 12.0492C14.4782 13.4492 13.3782 14.5892 11.9982 14.6292ZM9.08924 17.7802C7.67924 18.7202 7.67924 20.2602 9.08924 21.2002C10.6892 22.2702 13.3092 22.2702 14.9092 21.2002C16.3192 20.2602 16.3192 18.7202 14.9092 17.7802C13.3192 16.7202 10.6892 16.7202 9.08924 17.7802Z" stroke="#178C8C" stroke-width="1.5" stroke-linecap="round" stroke-linejoin="round"/>
</g>
</svg>
