<svg width="21" height="22" viewBox="0 0 21 22" fill="none" xmlns="http://www.w3.org/2000/svg">
<g id="Group 39529">
<path id="Vector" d="M7.75139 9.96545C7.65139 9.95545 7.53139 9.95545 7.42139 9.96545C6.27359 9.92648 5.18603 9.44229 4.38901 8.61541C3.592 7.78853 3.14813 6.6839 3.15139 5.53545C3.15139 3.08545 5.13138 1.09545 7.59138 1.09545C8.76762 1.07423 9.90411 1.52114 10.7508 2.33786C11.5976 3.15458 12.0852 4.27421 12.1064 5.45045C12.1276 6.62668 11.6807 7.76317 10.864 8.6099C10.0473 9.45663 8.92762 9.94423 7.75139 9.96545Z" stroke="white" stroke-width="1.5" stroke-linecap="round" stroke-linejoin="round"/>
<path id="Vector_2" opacity="0.4" d="M15.004 3.09546C16.944 3.09546 18.504 4.66546 18.504 6.59546C18.504 8.48546 17.004 10.0255 15.134 10.0955C15.0476 10.0855 14.9604 10.0855 14.874 10.0955" stroke="white" stroke-width="1.5" stroke-linecap="round" stroke-linejoin="round"/>
<path id="Vector_3" d="M2.75152 13.6555C0.331523 15.2755 0.331523 17.9155 2.75152 19.5255C5.50152 21.3655 10.0115 21.3655 12.7615 19.5255C15.1815 17.9055 15.1815 15.2655 12.7615 13.6555C10.0215 11.8255 5.51152 11.8255 2.75152 13.6555Z" stroke="white" stroke-width="1.5" stroke-linecap="round" stroke-linejoin="round"/>
<path id="Vector_4" opacity="0.4" d="M16.9326 19.0955C17.6526 18.9455 18.3326 18.6555 18.8926 18.2255C20.4526 17.0555 20.4526 15.1255 18.8926 13.9555C18.3426 13.5355 17.6726 13.2555 16.9626 13.0955" stroke="white" stroke-width="1.5" stroke-linecap="round" stroke-linejoin="round"/>
</g>
</svg>
