<svg width="24" height="24" viewBox="0 0 24 24" fill="none" xmlns="http://www.w3.org/2000/svg">
<g id="Iconsax/TwoTone/link21">
<path id="Vector" d="M13.0598 10.9409C13.5947 11.4742 14.0191 12.1077 14.3087 12.8053C14.5982 13.5028 14.7473 14.2507 14.7473 15.0059C14.7473 15.7612 14.5982 16.509 14.3087 17.2066C14.0191 17.9041 13.5947 18.5377 13.0598 19.0709C10.8098 21.3109 7.16985 21.3209 4.92985 19.0709C2.68985 16.8209 2.67985 13.1809 4.92985 10.9409" stroke="white" stroke-width="1.5" stroke-linecap="round" stroke-linejoin="round"/>
<path id="Vector_2" opacity="0.4" d="M10.59 13.4089C8.24996 11.0689 8.24996 7.26891 10.59 4.91891C12.93 2.56891 16.73 2.57891 19.08 4.91891C21.43 7.25891 21.42 11.0589 19.08 13.4089" stroke="white" stroke-width="1.5" stroke-linecap="round" stroke-linejoin="round"/>
</g>
</svg>
