<svg width="32" height="32" viewBox="0 0 32 32" fill="none" xmlns="http://www.w3.org/2000/svg">
<g id="Group 39517">
<path id="Vector" d="M8.41 28.945C10.63 30.25 13.225 31 16 31C24.28 31 31 24.28 31 16C31 7.72 24.28 1 16 1C7.72 1 1 7.72 1 16C1 18.73 1.735 21.295 3.01 23.5L1 31L8.41 28.945Z" stroke="#178C8C" stroke-width="1.5" stroke-miterlimit="10" stroke-linecap="round" stroke-linejoin="round"/>
<path id="Vector_2" opacity="0.4" d="M23.5 20.7557C23.5 21.0257 23.44 21.3107 23.305 21.5807C22.9433 22.3228 22.3252 22.9088 21.565 23.2307C21.115 23.4257 20.62 23.5157 20.095 23.5157C19.33 23.5157 18.505 23.3357 17.65 22.9607C16.78 22.5857 15.925 22.0907 15.07 21.4757C14.2 20.8457 13.39 20.1407 12.61 19.3757C11.83 18.5957 11.14 17.7707 10.51 16.9157C9.895 16.0607 9.4 15.2057 9.04 14.3507C8.68 13.4957 8.5 12.6707 8.5 11.8907C8.5 11.3807 8.59 10.8857 8.77 10.4357C8.95 9.9707 9.235 9.5507 9.64 9.1757C10.12 8.6957 10.645 8.4707 11.2 8.4707C11.41 8.4707 11.62 8.5157 11.815 8.6057C12.01 8.6957 12.19 8.8307 12.325 9.0257L14.065 11.4857C14.2 11.6807 14.305 11.8457 14.365 12.0107C14.44 12.1757 14.47 12.3257 14.47 12.4757C14.47 12.6557 14.41 12.8357 14.305 13.0157C14.2 13.1957 14.065 13.3757 13.885 13.5557L13.315 14.1557C13.225 14.2457 13.195 14.3357 13.195 14.4557C13.195 14.5157 13.21 14.5757 13.225 14.6357C13.255 14.6957 13.27 14.7407 13.285 14.7857C13.42 15.0407 13.66 15.3557 13.99 15.7457C14.6923 16.571 15.4597 17.3384 16.285 18.0407C16.675 18.3707 17.005 18.5957 17.26 18.7307C17.305 18.7457 17.35 18.7757 17.395 18.7907C17.455 18.8207 17.515 18.8207 17.59 18.8207C17.725 18.8207 17.815 18.7757 17.905 18.6857L18.475 18.1157C18.67 17.9207 18.85 17.7857 19.015 17.6957C19.195 17.5907 19.36 17.5307 19.555 17.5307C19.705 17.5307 19.855 17.5607 20.02 17.6357C20.185 17.7107 20.365 17.8007 20.545 17.9357L23.035 19.7057C23.23 19.8407 23.365 20.0057 23.455 20.1857C23.455 20.3657 23.5 20.5457 23.5 20.7557Z" stroke="#178C8C" stroke-width="1.5" stroke-miterlimit="10"/>
</g>
</svg>
